<svg xmlns="http://www.w3.org/2000/svg" version="1.1" xmlns:xlink="http://www.w3.org/1999/xlink" xmlns:svgjs="http://svgjs.com/svgjs" width="20" height="20"><svg width="20" height="20" viewBox="0 0 20 20" fill="none" xmlns="http://www.w3.org/2000/svg">
<path fill-rule="evenodd" clip-rule="evenodd" d="M10 20C5.286 20 2.929 20 1.464 18.535C0 17.072 0 14.714 0 10C0 5.286 0 2.929 1.464 1.464C2.93 0 5.286 0 10 0C14.714 0 17.071 0 18.535 1.464C20 2.93 20 5.286 20 10C20 14.714 20 17.071 18.535 18.535C17.072 20 14.714 20 10 20ZM6.75 4.5C6.75 4.30109 6.67098 4.11032 6.53033 3.96967C6.38968 3.82902 6.19891 3.75 6 3.75C5.80109 3.75 5.61032 3.82902 5.46967 3.96967C5.32902 4.11032 5.25 4.30109 5.25 4.5V5.75H4C3.80109 5.75 3.61032 5.82902 3.46967 5.96967C3.32902 6.11032 3.25 6.30109 3.25 6.5C3.25 6.69891 3.32902 6.88968 3.46967 7.03033C3.61032 7.17098 3.80109 7.25 4 7.25H5.25V8.5C5.25 8.69891 5.32902 8.88968 5.46967 9.03033C5.61032 9.17098 5.80109 9.25 6 9.25C6.19891 9.25 6.38968 9.17098 6.53033 9.03033C6.67098 8.88968 6.75 8.69891 6.75 8.5V7.25H8C8.19891 7.25 8.38968 7.17098 8.53033 7.03033C8.67098 6.88968 8.75 6.69891 8.75 6.5C8.75 6.30109 8.67098 6.11032 8.53033 5.96967C8.38968 5.82902 8.19891 5.75 8 5.75H6.75V4.5ZM12 5.75C11.8011 5.75 11.6103 5.82902 11.4697 5.96967C11.329 6.11032 11.25 6.30109 11.25 6.5C11.25 6.69891 11.329 6.88968 11.4697 7.03033C11.6103 7.17098 11.8011 7.25 12 7.25H16C16.1989 7.25 16.3897 7.17098 16.5303 7.03033C16.671 6.88968 16.75 6.69891 16.75 6.5C16.75 6.30109 16.671 6.11032 16.5303 5.96967C16.3897 5.82902 16.1989 5.75 16 5.75H12ZM12 11.75C11.8011 11.75 11.6103 11.829 11.4697 11.9697C11.329 12.1103 11.25 12.3011 11.25 12.5C11.25 12.6989 11.329 12.8897 11.4697 13.0303C11.6103 13.171 11.8011 13.25 12 13.25H16C16.1989 13.25 16.3897 13.171 16.5303 13.0303C16.671 12.8897 16.75 12.6989 16.75 12.5C16.75 12.3011 16.671 12.1103 16.5303 11.9697C16.3897 11.829 16.1989 11.75 16 11.75H12ZM5.03 11.97C4.88783 11.8375 4.69978 11.7654 4.50548 11.7688C4.31118 11.7723 4.12579 11.851 3.98838 11.9884C3.85097 12.1258 3.77225 12.3112 3.76883 12.5055C3.7654 12.6998 3.83752 12.8878 3.97 13.03L4.94 14L3.97 14.97C3.89631 15.0387 3.83721 15.1215 3.79622 15.2135C3.75523 15.3055 3.73319 15.4048 3.73141 15.5055C3.72963 15.6062 3.74816 15.7062 3.78588 15.7996C3.8236 15.893 3.87974 15.9778 3.95096 16.049C4.02218 16.1203 4.10701 16.1764 4.2004 16.2141C4.29379 16.2518 4.39382 16.2704 4.49452 16.2686C4.59523 16.2668 4.69454 16.2448 4.78654 16.2038C4.87854 16.1628 4.96134 16.1037 5.03 16.03L6 15.06L6.97 16.03C7.03866 16.1037 7.12146 16.1628 7.21346 16.2038C7.30546 16.2448 7.40478 16.2668 7.50548 16.2686C7.60618 16.2704 7.70621 16.2518 7.7996 16.2141C7.89299 16.1764 7.97782 16.1203 8.04904 16.049C8.12026 15.9778 8.1764 15.893 8.21412 15.7996C8.25184 15.7062 8.27037 15.6062 8.26859 15.5055C8.26682 15.4048 8.24477 15.3055 8.20378 15.2135C8.16279 15.1215 8.10369 15.0387 8.03 14.97L7.06 14L8.03 13.03C8.10369 12.9613 8.16279 12.8785 8.20378 12.7865C8.24477 12.6945 8.26682 12.5952 8.26859 12.4945C8.27037 12.3938 8.25184 12.2938 8.21412 12.2004C8.1764 12.107 8.12026 12.0222 8.04904 11.951C7.97782 11.8797 7.89299 11.8236 7.7996 11.7859C7.70621 11.7482 7.60618 11.7296 7.50548 11.7314C7.40478 11.7332 7.30546 11.7552 7.21346 11.7962C7.12146 11.8372 7.03866 11.8963 6.97 11.97L6 12.94L5.03 11.97ZM12 14.75C11.8011 14.75 11.6103 14.829 11.4697 14.9697C11.329 15.1103 11.25 15.3011 11.25 15.5C11.25 15.6989 11.329 15.8897 11.4697 16.0303C11.6103 16.171 11.8011 16.25 12 16.25H16C16.1989 16.25 16.3897 16.171 16.5303 16.0303C16.671 15.8897 16.75 15.6989 16.75 15.5C16.75 15.3011 16.671 15.1103 16.5303 14.9697C16.3897 14.829 16.1989 14.75 16 14.75H12Z" fill="#FF3F3F"></path>
</svg><style>@media (prefers-color-scheme: light) { :root { filter: none; } }
</style></svg>